<?xml version="1.0" encoding="UTF-8"?>
<!-- Generated by Pixelmator Pro 3.6.13 -->
<svg width="1024" height="1024" viewBox="0 0 1024 1024" xmlns="http://www.w3.org/2000/svg">
    <g id="figureseatedsideleft">
        <path id="Path" fill="#ffffff" stroke="none" d="M 844.373047 289.649841 C 916.657227 289.649841 974 229.415466 974 159.543823 C 974 86.780457 916.657227 27.991394 844.373047 27.991394 C 771.610291 27.991394 713.305298 86.780457 713.305298 159.543823 C 713.305298 231.342896 771.610291 289.649841 844.373047 289.649841 Z M 68.073235 979.21228 C 92.648911 1005.236389 135.535843 1003.307007 166.3759 971.5047 L 373.582581 757.553711 C 380.328918 750.324768 385.629456 748.395386 396.23053 752.732788 L 558.142822 813.929321 C 662.224304 853.927612 760.04895 819.712463 805.825439 736.829224 L 909.911926 547.451477 C 950.388855 473.726501 937.37677 397.590027 867.022034 360.00415 C 799.080139 322.899353 728.725342 350.848328 687.286133 426.502686 L 552.35968 672.741089 L 437.190094 630.818359 C 380.328918 610.098755 333.105133 616.844116 287.808746 664.066406 L 72.410141 886.692139 C 42.051926 917.532166 44.943195 956.084656 68.073235 979.21228 Z"/>
    </g>
</svg>
