<?xml version="1.0" encoding="UTF-8"?>
<!-- Generated by Pixelmator Pro 3.6.13 -->
<svg width="1024" height="1024" viewBox="0 0 1024 1024" xmlns="http://www.w3.org/2000/svg">
    <g id="figurestand">
        <path id="Path" fill="#ffffff" stroke="none" d="M 310.62558 598.401123 C 310.62558 619.787109 327.309387 636.472778 348.698914 636.472778 C 369.660767 636.472778 386.344604 619.787109 386.344604 598.401123 L 386.344604 433.7005 C 386.344604 426.000366 392.761261 420.01123 400.461426 420.01123 C 408.161591 420.01123 414.150696 426.000366 414.150696 433.7005 L 414.150696 932.502869 C 414.150696 955.605957 432.973572 974 456.074066 974 C 479.175018 974 497.997437 955.605957 497.997437 932.502869 L 497.997437 629.200928 C 497.997437 621.499878 504.41452 614.657471 512.114685 614.657471 C 519.81488 614.657471 526.659485 621.499878 526.659485 629.200928 L 526.659485 932.502869 C 526.659485 955.605957 545.054382 974 568.155334 974 C 591.255798 974 610.078674 955.605957 610.078674 932.502869 L 610.078674 433.7005 C 610.078674 426.000366 616.06781 420.01123 623.767944 420.01123 C 631.46814 420.01123 637.884766 426.000366 637.884766 433.7005 L 637.884766 598.401123 C 637.884766 619.787109 654.568604 636.472778 675.530518 636.472778 C 696.919983 636.472778 713.603821 619.787109 713.603821 598.401123 L 713.603821 414.449646 C 713.603821 319.908264 644.30188 257.450928 542.915344 257.450928 L 481.313599 257.450928 C 379.927521 257.450928 310.62558 319.908264 310.62558 414.449646 Z M 512.114685 208.254944 C 563.877258 208.254944 605.373047 166.759583 605.373047 114.99707 C 605.373047 63.234314 563.877258 21.738647 512.114685 21.738647 C 460.352142 21.738647 418.856323 63.234314 418.856323 114.99707 C 418.856323 166.759583 460.352142 208.254944 512.114685 208.254944 Z"/>
    </g>
</svg>
